<svg xmlns="http://www.w3.org/2000/svg" xmlns:xlink="http://www.w3.org/1999/xlink" aria-hidden="true" focusable="false" width="1em" height="1em" style="-ms-transform: rotate(360deg); -webkit-transform: rotate(360deg); transform: rotate(360deg);" preserveAspectRatio="xMidYMid meet" viewBox="0 0 1408 1408"><path d="M1408 608v192q0 40-28 68t-68 28H896v416q0 40-28 68t-68 28H608q-40 0-68-28t-28-68V896H96q-40 0-68-28T0 800V608q0-40 28-68t68-28h416V96q0-40 28-68t68-28h192q40 0 68 28t28 68v416h416q40 0 68 28t28 68z" fill="black"/></svg>