<svg xmlns="http://www.w3.org/2000/svg" xmlns:xlink="http://www.w3.org/1999/xlink" width="1152" height="1536" preserveAspectRatio="xMidYMid meet" viewBox="0 0 1152 1536" style="-ms-transform: rotate(360deg); -webkit-transform: rotate(360deg); transform: rotate(360deg);"><path d="M1056 768q40 0 68 28t28 68v576q0 40-28 68t-68 28H96q-40 0-68-28t-28-68V864q0-40 28-68t68-28h32V448q0-185 131.5-316.5T576 0t316.5 131.5T1024 448q0 26-19 45t-45 19h-64q-26 0-45-19t-19-45q0-106-75-181t-181-75t-181 75t-75 181v320h736z" fill="white"/><rect x="0" y="0" width="1152" height="1536" fill="rgba(0, 0, 0, 0)" /></svg>